<svg width="224" height="59" viewBox="0 0 224 59" fill="none" xmlns="http://www.w3.org/2000/svg">
<path d="M24.3108 41.1199V18.5218C24.3108 16.7663 24.5901 15.1783 25.1487 13.758C25.7073 12.3376 26.5453 11.1008 27.6625 10.0475C28.7797 8.99418 29.9767 8.2042 31.2536 7.67755C32.5304 7.1509 33.8711 6.88757 35.2756 6.88757C35.5629 6.88757 35.8502 6.90353 36.1375 6.93545C36.4248 6.96737 36.728 7.01525 37.0472 7.07908C37.3664 7.14292 37.6856 7.22271 38.0048 7.31847C38.324 7.41422 38.6432 7.50998 38.9625 7.60573C39.9201 7.95683 40.8298 8.43561 41.6917 9.04206C42.5535 9.6485 43.3835 10.3826 44.1815 11.2444C44.9795 12.1062 45.578 13.0877 45.9771 14.1889C46.3761 15.2901 46.5756 16.5109 46.5756 17.8515C46.5756 19.3197 46.384 20.6284 46.001 21.7774C45.6179 22.9265 45.0593 23.916 44.3252 24.7458C43.591 25.5438 42.8169 26.2221 42.0029 26.7806C41.1889 27.3392 40.351 27.7461 39.4891 28.0015C39.2657 28.0653 39.0343 28.1212 38.7949 28.1691C38.5555 28.2169 38.324 28.2568 38.1006 28.2888C37.8771 28.3207 37.6537 28.3446 37.4303 28.3606C37.2068 28.3765 36.9834 28.3845 36.7599 28.3845L30.3438 28.2888V24.1713H34.5095C34.5414 24.2032 34.5733 24.2272 34.6053 24.2431C34.6372 24.2591 34.6691 24.2671 34.701 24.2671C34.701 24.2671 34.717 24.2671 34.7489 24.2671C34.7808 24.2671 34.8128 24.2671 34.8447 24.2671C34.8766 24.2671 34.9085 24.2671 34.9404 24.2671C34.9724 24.2671 35.0043 24.2671 35.0362 24.2671C35.0362 24.2671 35.0522 24.2671 35.0841 24.2671C35.116 24.2671 35.1479 24.2671 35.1798 24.2671C36.1375 24.2671 36.9674 24.1793 37.6697 24.0037C38.3719 23.8282 38.9465 23.5489 39.3934 23.1659C39.8403 22.8148 40.2233 22.4318 40.5425 22.0168C40.8617 21.6019 41.1011 21.171 41.2608 20.7241C41.3565 20.4688 41.4283 20.2055 41.4762 19.9342C41.5241 19.6629 41.564 19.3995 41.5959 19.1442C41.6278 18.8888 41.6518 18.6574 41.6677 18.45C41.6837 18.2425 41.6917 18.043 41.6917 17.8515C41.6917 17.6919 41.6837 17.5164 41.6677 17.3248C41.6518 17.1333 41.6278 16.9259 41.5959 16.7024C41.564 16.479 41.5161 16.2556 41.4523 16.0322C41.3884 15.8087 41.3246 15.5853 41.2608 15.3619C41.0692 14.8831 40.8139 14.4203 40.4947 13.9734C40.1754 13.5266 39.7924 13.0957 39.3455 12.6807C38.8986 12.2658 38.34 11.9546 37.6697 11.7471C36.9993 11.5397 36.2013 11.4359 35.2756 11.4359C33.8711 11.4359 32.7219 11.6594 31.8282 12.1062C30.9344 12.5531 30.3119 13.2233 29.9608 14.1171C29.5777 15.0108 29.2984 15.9923 29.1229 17.0615C28.9473 18.1308 28.8595 19.2719 28.8595 20.4847V41.1199H24.3108Z" fill="white"/>
<path fill-rule="evenodd" clip-rule="evenodd" d="M51.9303 11.8429C51.8026 12.1461 51.7388 12.4732 51.7388 12.8243V12.9201C51.7388 13.335 51.8026 13.7101 51.9303 14.0452C52.058 14.3804 52.2654 14.6596 52.5527 14.8831C52.84 15.1065 53.1433 15.2661 53.4625 15.3619C53.7817 15.4576 54.1009 15.4895 54.4201 15.4576C54.7393 15.4576 55.0426 15.4097 55.3298 15.314C55.6171 15.2182 55.9044 15.0586 56.1917 14.8352C56.4471 14.6118 56.6466 14.3405 56.7902 14.0213C56.9339 13.7021 57.0057 13.335 57.0057 12.9201C57.0057 12.5052 56.9339 12.1461 56.7902 11.8429C56.6466 11.5396 56.4311 11.2763 56.1438 11.0529C55.8565 10.8295 55.5693 10.6699 55.282 10.5741C54.9947 10.4784 54.6755 10.4305 54.3243 10.4305C54.0051 10.4305 53.6939 10.4863 53.3907 10.5981C53.0874 10.7098 52.8081 10.8614 52.5527 11.0529C52.2654 11.2763 52.058 11.5396 51.9303 11.8429ZM52.0739 18.1387V41.1199H56.2396V18.1387H52.0739Z" fill="white"/>
<path d="M64.4193 41.1199V27.1876C64.4193 25.9108 64.6427 24.7059 65.0896 23.5728C65.5365 22.4397 66.2069 21.3784 67.1006 20.389C68.0263 19.4314 69.1117 18.7053 70.3566 18.2105C71.6015 17.7158 73.0219 17.4684 74.618 17.4684C74.8734 17.4684 75.1527 17.4844 75.4559 17.5163C75.7592 17.5482 76.0863 17.5961 76.4375 17.66C76.7886 17.7238 77.1477 17.8036 77.5148 17.8993C77.8819 17.9951 78.257 18.1228 78.64 18.2824C79.3103 18.5696 79.9488 18.9367 80.5553 19.3835C81.1618 19.8304 81.7523 20.373 82.3269 21.0114C82.9014 21.6178 83.3324 22.3679 83.6197 23.2616C83.9069 24.1553 84.0506 25.1767 84.0506 26.3258C84.0506 26.3577 84.0506 26.3976 84.0506 26.4455C84.0506 26.4933 84.0506 26.5492 84.0506 26.613C84.0506 26.6449 84.0506 26.6848 84.0506 26.7327C84.0506 26.7806 84.0506 26.8365 84.0506 26.9003V41.1199H79.5019V27.5706C79.5019 26.8684 79.3981 26.1741 79.1906 25.4879C78.9832 24.8017 78.6719 24.1553 78.257 23.5489C77.842 22.9105 77.2993 22.4317 76.629 22.1125C75.9587 21.7934 75.1606 21.6338 74.2349 21.6338C73.3731 21.6338 72.615 21.7774 71.9606 22.0647C71.3062 22.3519 70.7396 22.7828 70.2608 23.3574C69.782 23.9319 69.4069 24.5463 69.1356 25.2006C68.8643 25.855 68.6807 26.5492 68.585 27.2833V41.1199H64.4193Z" fill="white"/>
<path d="M104.145 41.1199V7.55786H114.679C114.998 7.6217 115.325 7.66958 115.66 7.70149C115.995 7.73341 116.323 7.78129 116.642 7.84513C116.993 7.90896 117.344 7.98876 117.695 8.08451C118.046 8.18027 118.397 8.27602 118.749 8.37178C120.089 8.85055 121.374 9.52881 122.603 10.4066C123.832 11.2843 124.989 12.3775 126.074 13.6862C127.192 14.9629 128.029 16.4391 128.588 18.1148C129.147 19.7905 129.426 21.6338 129.426 23.6447C129.426 23.6766 129.426 23.7005 129.426 23.7165C129.426 23.7324 129.426 23.7564 129.426 23.7883C129.426 23.8202 129.426 23.8521 129.426 23.884C129.426 23.916 129.426 23.9319 129.426 23.9319C129.426 23.9638 129.426 23.9958 129.426 24.0277C129.426 24.0596 129.426 24.0915 129.426 24.1234C129.426 24.1554 129.426 24.1793 129.426 24.1952C129.426 24.2112 129.426 24.2351 129.426 24.2671C129.426 24.682 129.394 25.1688 129.33 25.7273C129.266 26.2859 129.155 26.9322 128.995 27.6664C128.867 28.3686 128.668 29.0867 128.397 29.8208C128.125 30.555 127.798 31.305 127.415 32.0711C126.872 33.1882 126.178 34.2655 125.332 35.3028C124.486 36.3401 123.505 37.3216 122.387 38.2473C121.27 39.1729 119.946 39.8751 118.413 40.3539C116.881 40.8326 115.141 41.088 113.194 41.1199H110.561V36.6194H113.194C113.194 36.6833 113.202 36.7152 113.218 36.7152C113.234 36.7152 113.258 36.7152 113.29 36.7152C113.322 36.7152 113.346 36.7152 113.362 36.7152C113.378 36.7152 113.402 36.7152 113.434 36.7152C113.434 36.7152 113.442 36.7152 113.458 36.7152C113.474 36.7152 113.498 36.7152 113.529 36.7152C113.561 36.7152 113.585 36.7152 113.601 36.7152C113.617 36.7152 113.641 36.7152 113.673 36.7152C115.014 36.7152 116.227 36.5157 117.312 36.1167C118.397 35.7177 119.339 35.1193 120.137 34.3213C120.935 33.5234 121.621 32.6935 122.196 31.8317C122.771 30.9699 123.233 30.0602 123.585 29.1027C123.648 28.8793 123.712 28.6638 123.776 28.4563C123.84 28.2489 123.904 28.0334 123.968 27.81C124.031 27.6185 124.087 27.419 124.135 27.2115C124.183 27.0041 124.223 26.7886 124.255 26.5652C124.319 26.1183 124.375 25.7034 124.422 25.3204C124.47 24.9373 124.494 24.5862 124.494 24.2671C124.494 24.2351 124.494 24.2032 124.494 24.1713C124.494 24.1394 124.494 24.1075 124.494 24.0756C124.494 24.0436 124.494 24.0037 124.494 23.9559C124.494 23.908 124.51 23.8681 124.542 23.8362C124.542 23.8043 124.542 23.7723 124.542 23.7404C124.542 23.7085 124.542 23.6766 124.542 23.6447C124.542 23.6127 124.542 23.5808 124.542 23.5489C124.542 23.517 124.542 23.4851 124.542 23.4532C124.542 23.4532 124.542 23.4372 124.542 23.4053C124.542 23.4053 124.542 23.3973 124.542 23.3813C124.542 23.3654 124.542 23.3414 124.542 23.3095C124.51 21.8732 124.247 20.4927 123.752 19.1681C123.257 17.8435 122.515 16.5907 121.526 15.4098C120.536 14.1969 119.291 13.2952 117.791 12.7047C116.291 12.1142 114.503 11.8189 112.428 11.8189L109.029 11.7232V41.1199H104.145Z" fill="white"/>
<path d="M133.392 18.1388H137.558V20.389C137.622 20.3571 137.678 20.3092 137.725 20.2454C137.773 20.1815 137.845 20.1018 137.941 20.006C138.005 19.9102 138.085 19.8145 138.18 19.7187C138.276 19.623 138.372 19.5272 138.468 19.4315C138.723 19.1761 139.002 18.9367 139.306 18.7133C139.609 18.4899 139.968 18.2824 140.383 18.0909C140.766 17.8994 141.197 17.7478 141.676 17.6361C142.154 17.5244 142.665 17.4685 143.208 17.4685L144.74 17.3727V21.5381H143.591C142.697 21.6977 141.931 21.9371 141.293 22.2562C140.654 22.5754 140.112 22.9744 139.665 23.4532C139.25 23.9319 138.906 24.4347 138.635 24.9613C138.364 25.488 138.148 26.0226 137.989 26.5652C137.861 26.9801 137.765 27.3791 137.701 27.7621C137.638 28.1452 137.606 28.5122 137.606 28.8633C137.574 29.2463 137.558 29.5815 137.558 29.8687C137.558 30.156 137.558 30.4273 137.558 30.6827V41.1199H133.392V18.1388Z" fill="white"/>
<path d="M175.368 53.1244V29.4378C175.368 27.778 175.583 26.3018 176.014 25.0091C176.445 23.7164 177.092 22.6073 177.954 21.6817C178.815 20.756 179.717 19.99 180.659 19.3835C181.601 18.7771 182.598 18.3143 183.651 17.9951C183.939 17.8993 184.226 17.8195 184.513 17.7557C184.801 17.6919 185.088 17.644 185.375 17.6121C185.535 17.5802 185.678 17.5562 185.806 17.5403C185.934 17.5243 186.077 17.5163 186.237 17.5163C186.365 17.4844 186.5 17.4684 186.644 17.4684C186.788 17.4684 186.923 17.4684 187.051 17.4684C188.743 17.4684 190.227 17.6679 191.504 18.0669C192.781 18.4659 193.866 19.0803 194.76 19.9102C195.622 20.7081 196.364 21.546 196.986 22.4238C197.609 23.3015 198.08 24.2192 198.399 25.1767C198.527 25.5597 198.638 25.9427 198.734 26.3258C198.83 26.7088 198.894 27.0918 198.926 27.4748C198.989 27.8578 199.037 28.2169 199.069 28.5521C199.101 28.8872 199.117 29.2144 199.117 29.5335C199.117 29.8527 199.101 30.1958 199.069 30.5629C199.037 30.93 198.989 31.305 198.926 31.688C198.894 32.071 198.83 32.4541 198.734 32.8371C198.638 33.2201 198.527 33.6031 198.399 33.9861C198.08 34.9118 197.649 35.8055 197.106 36.6673C196.563 37.5291 195.877 38.3589 195.047 39.1569C194.249 39.9549 193.244 40.5773 192.031 41.0241C190.818 41.471 189.413 41.7582 187.817 41.8859C187.338 41.8859 186.86 41.854 186.381 41.7902C185.902 41.7263 185.391 41.6306 184.849 41.5029C184.338 41.3752 183.755 41.1997 183.101 40.9762C182.446 40.7528 181.752 40.4496 181.018 40.0666V35.4703C181.497 35.7576 181.936 35.997 182.335 36.1885C182.734 36.38 183.093 36.5396 183.412 36.6673C183.731 36.7949 184.043 36.9067 184.346 37.0024C184.649 37.0982 184.944 37.178 185.232 37.2418C185.391 37.2737 185.559 37.3056 185.734 37.3376C185.91 37.3695 186.093 37.3854 186.285 37.3854C186.445 37.4174 186.62 37.4333 186.812 37.4333C187.003 37.4333 187.211 37.4333 187.434 37.4333C188.647 37.4333 189.708 37.2498 190.618 36.8827C191.528 36.5157 192.27 35.9491 192.845 35.1831C193.419 34.417 193.858 33.5632 194.161 32.6216C194.465 31.68 194.616 30.6507 194.616 29.5335C194.616 28.3207 194.417 27.2275 194.018 26.2539C193.619 25.2804 193.02 24.4426 192.222 23.7404C191.424 23.0382 190.594 22.5115 189.732 22.1604C188.871 21.8093 187.977 21.6338 187.051 21.6338C186.828 21.6338 186.604 21.6497 186.381 21.6817C186.157 21.7136 185.918 21.7614 185.662 21.8253C185.407 21.8572 185.152 21.921 184.896 22.0168C184.641 22.1126 184.386 22.2243 184.13 22.3519C183.556 22.6392 183.005 23.0142 182.478 23.4771C181.952 23.9399 181.449 24.4905 180.97 25.1288C180.491 25.7353 180.132 26.4694 179.893 27.3312C179.653 28.193 179.534 29.1824 179.534 30.2996V53.1244H175.368Z" fill="white"/>
<path d="M106.917 45.9937V51.6887H110.101C110.354 51.6887 110.549 51.751 110.685 51.8755C110.821 52.0001 110.888 52.1566 110.888 52.3452C110.888 52.5374 110.821 52.693 110.687 52.8122C110.554 52.9314 110.358 52.991 110.101 52.991H106.309C105.967 52.991 105.721 52.9145 105.572 52.7615C105.422 52.6085 105.347 52.3612 105.347 52.0196V45.9937C105.347 45.6735 105.418 45.4333 105.561 45.2732C105.704 45.1131 105.891 45.033 106.124 45.033C106.36 45.033 106.552 45.1122 106.698 45.2705C106.844 45.4289 106.917 45.6699 106.917 45.9937Z" fill="white"/>
<path d="M125.797 52.1584V45.9937C125.797 45.6735 125.869 45.4333 126.013 45.2732C126.158 45.1131 126.345 45.033 126.574 45.033C126.81 45.033 127.001 45.1122 127.148 45.2705C127.294 45.4289 127.367 45.6699 127.367 45.9937V52.1584C127.367 52.4822 127.294 52.7242 127.148 52.8843C127.001 53.0444 126.81 53.1245 126.574 53.1245C126.348 53.1245 126.162 53.0435 126.016 52.8816C125.87 52.7197 125.797 52.4787 125.797 52.1584Z" fill="white"/>
<path d="M144.084 46.0738L145.839 51.3204L147.6 46.0364C147.692 45.7589 147.761 45.5659 147.806 45.4573C147.852 45.3488 147.928 45.251 148.034 45.1638C148.14 45.0766 148.284 45.033 148.467 45.033C148.601 45.033 148.726 45.0668 148.84 45.1344C148.955 45.202 149.045 45.2919 149.11 45.404C149.175 45.5161 149.208 45.629 149.208 45.7429C149.208 45.8212 149.197 45.9057 149.176 45.9964C149.155 46.0872 149.128 46.1761 149.097 46.2633C149.065 46.3505 149.033 46.4403 149.001 46.5328L147.124 51.646C147.057 51.8417 146.99 52.0276 146.923 52.2038C146.856 52.3799 146.779 52.5347 146.691 52.6681C146.603 52.8016 146.485 52.911 146.339 52.9964C146.193 53.0818 146.014 53.1245 145.802 53.1245C145.591 53.1245 145.412 53.0827 145.266 52.999C145.119 52.9154 145.001 52.8051 144.911 52.6681C144.821 52.5311 144.743 52.3755 144.676 52.2011C144.609 52.0268 144.542 51.8417 144.475 51.646L142.63 46.5755C142.598 46.483 142.565 46.3923 142.532 46.3033C142.498 46.2144 142.47 46.1183 142.447 46.0151C142.424 45.9119 142.413 45.8247 142.413 45.7536C142.413 45.5721 142.485 45.4066 142.63 45.2572C142.774 45.1077 142.956 45.033 143.174 45.033C143.442 45.033 143.632 45.1157 143.743 45.2812C143.854 45.4467 143.967 45.7109 144.084 46.0738Z" fill="white"/>
<path d="M169.308 46.3887H165.771V48.3102H169.028C169.268 48.3102 169.447 48.3644 169.565 48.4729C169.683 48.5815 169.742 48.7247 169.742 48.9026C169.742 49.0805 169.684 49.2255 169.568 49.3376C169.451 49.4497 169.271 49.5057 169.028 49.5057H165.771V51.7314H169.43C169.677 51.7314 169.863 51.7892 169.988 51.9049C170.113 52.0205 170.176 52.1744 170.176 52.3666C170.176 52.5516 170.113 52.7019 169.988 52.8176C169.863 52.9332 169.677 52.991 169.43 52.991H165.163C164.821 52.991 164.575 52.9145 164.425 52.7615C164.275 52.6085 164.2 52.3612 164.2 52.0196V46.1378C164.2 45.9101 164.234 45.7242 164.301 45.5801C164.368 45.436 164.473 45.331 164.616 45.2652C164.758 45.1994 164.941 45.1664 165.163 45.1664H169.308C169.559 45.1664 169.745 45.2225 169.866 45.3346C169.988 45.4467 170.049 45.5934 170.049 45.7749C170.049 45.9599 169.988 46.1085 169.866 46.2206C169.745 46.3327 169.559 46.3887 169.308 46.3887Z" fill="white"/>
<path d="M166.453 30.006C166.014 30.7367 165.538 31.4326 165.063 32.0937C168.136 32.7547 169.966 33.9029 169.966 34.7728C169.966 36.0601 165.904 38.0086 159.757 38.0086C153.609 38.0086 149.547 36.0601 149.547 34.7728C149.547 33.9029 151.377 32.7895 154.451 32.0937C153.975 31.4326 153.499 30.7367 153.06 30.006C149.547 30.8759 147.023 32.4416 147.023 34.7728C147.023 38.4609 153.426 40.4093 159.757 40.4093C166.087 40.4093 172.491 38.4609 172.491 34.7728C172.491 32.4416 169.966 30.8759 166.453 30.006Z" fill="white"/>
<path fill-rule="evenodd" clip-rule="evenodd" d="M165.545 23.7995C165.545 26.6366 161.573 32.9068 159.914 35.4102C159.563 35.9108 158.816 35.9108 158.465 35.4102C156.806 32.9068 152.811 26.6366 152.811 23.7995C152.811 20.1995 155.685 17.2909 159.19 17.2909C162.694 17.2909 165.545 20.1995 165.545 23.7995ZM159.19 20.7717C157.554 20.7717 156.222 22.1306 156.222 23.7995C156.222 25.4446 157.554 26.8035 159.19 26.8035C160.825 26.8035 162.157 25.4684 162.157 23.7995C162.157 22.1306 160.825 20.7717 159.19 20.7717Z" fill="white"/>
</svg>
