<svg width="139" height="41" viewBox="0 0 139 41" fill="none" xmlns="http://www.w3.org/2000/svg">
<g id="QBIT">
<path d="M23.35 40.7502L18.9 34.4002L24.25 33.0002L29.8 40.6502V40.7502H23.35ZM14.3 35.4002C11.5667 35.4002 9.31667 35.2502 7.55 34.9502C5.78333 34.6169 4.38333 34.0669 3.35 33.3002C2.31667 32.5335 1.56667 31.4835 1.1 30.1502C0.633333 28.8169 0.333333 27.1502 0.2 25.1502C0.0666667 23.1169 0 20.6669 0 17.8002C0 14.9335 0.0666667 12.5002 0.2 10.5002C0.333333 8.46686 0.633333 6.78353 1.1 5.4502C1.56667 4.11686 2.31667 3.06686 3.35 2.3002C4.38333 1.53353 5.78333 1.00019 7.55 0.700195C9.31667 0.366862 11.5667 0.200195 14.3 0.200195C17.0333 0.200195 19.2833 0.366862 21.05 0.700195C22.85 1.00019 24.2667 1.53353 25.3 2.3002C26.3333 3.06686 27.0833 4.11686 27.55 5.4502C28.05 6.78353 28.3667 8.46686 28.5 10.5002C28.6333 12.5002 28.7 14.9335 28.7 17.8002C28.7 20.6669 28.6333 23.1169 28.5 25.1502C28.3667 27.1502 28.05 28.8169 27.55 30.1502C27.0833 31.4835 26.3333 32.5335 25.3 33.3002C24.2667 34.0669 22.85 34.6169 21.05 34.9502C19.2833 35.2502 17.0333 35.4002 14.3 35.4002ZM14.3 30.6002C15.9667 30.6002 17.3333 30.5502 18.4 30.4502C19.5 30.3502 20.35 30.1002 20.95 29.7002C21.5833 29.3002 22.05 28.6502 22.35 27.7502C22.65 26.8169 22.8333 25.5669 22.9 24.0002C23 22.4002 23.05 20.3335 23.05 17.8002C23.05 15.2669 23 13.2169 22.9 11.6502C22.8333 10.0502 22.65 8.80019 22.35 7.90019C22.05 6.96686 21.5833 6.3002 20.95 5.9002C20.35 5.5002 19.5 5.2502 18.4 5.1502C17.3333 5.0502 15.9667 5.0002 14.3 5.0002C12.6667 5.0002 11.3167 5.0502 10.25 5.1502C9.18333 5.2502 8.33333 5.5002 7.7 5.9002C7.06667 6.3002 6.6 6.96686 6.3 7.90019C6.03333 8.80019 5.85 10.0502 5.75 11.6502C5.68333 13.2169 5.65 15.2669 5.65 17.8002C5.65 20.3335 5.68333 22.4002 5.75 24.0002C5.85 25.5669 6.03333 26.8169 6.3 27.7502C6.6 28.6502 7.06667 29.3002 7.7 29.7002C8.33333 30.1002 9.18333 30.3502 10.25 30.4502C11.3167 30.5502 12.6667 30.6002 14.3 30.6002Z" fill="white"/>
<path d="M46.7457 35.0002V0.600196H63.0957C65.3624 0.600196 67.179 0.950196 68.5457 1.65019C69.9124 2.31686 70.9124 3.3002 71.5457 4.6002C72.179 5.86686 72.4957 7.41686 72.4957 9.25019C72.4957 10.7835 72.279 12.1002 71.8457 13.2002C71.4457 14.3002 70.8124 15.2002 69.9457 15.9002C69.079 16.5669 67.9624 17.0502 66.5957 17.3502V17.5502C68.1957 17.8502 69.4457 18.3669 70.3457 19.1002C71.279 19.8335 71.929 20.7669 72.2957 21.9002C72.6624 23.0335 72.8457 24.3669 72.8457 25.9002C72.8457 27.2002 72.6957 28.4169 72.3957 29.5502C72.0957 30.6502 71.579 31.6002 70.8457 32.4002C70.1457 33.2002 69.1624 33.8335 67.8957 34.3002C66.629 34.7669 65.0124 35.0002 63.0457 35.0002H46.7457ZM52.3957 30.2502H61.3457C62.879 30.2502 64.0624 30.1002 64.8957 29.8002C65.729 29.4669 66.3124 28.9335 66.6457 28.2002C67.0124 27.4335 67.1957 26.4169 67.1957 25.1502C67.1957 23.8502 67.0124 22.8335 66.6457 22.1002C66.279 21.3335 65.6624 20.8002 64.7957 20.5002C63.9624 20.1669 62.8124 20.0002 61.3457 20.0002H52.3957V30.2502ZM52.3957 15.2002H61.1457C62.5124 15.2002 63.5957 15.0335 64.3957 14.7002C65.229 14.3669 65.8457 13.8502 66.2457 13.1502C66.6457 12.4169 66.8457 11.4835 66.8457 10.3502C66.8457 9.08353 66.679 8.1002 66.3457 7.4002C66.0124 6.66686 65.4457 6.1502 64.6457 5.8502C63.8457 5.5502 62.679 5.4002 61.1457 5.4002H52.3957V15.2002Z" fill="white"/>
<path d="M90.6813 35.0002V0.600196H96.3313V35.0002H90.6813Z" fill="white"/>
<path d="M122.576 35.0002V5.55019H112.126V0.600196H138.626V5.55019H128.226V35.0002H122.576Z" fill="white"/>
</g>
</svg>
