<svg width="18" height="18" viewBox="0 0 18 18" fill="none" xmlns="http://www.w3.org/2000/svg">
<g id="Frame">
<g id="icons">
<path id="email" d="M13.4444 4H4.55555C3.33333 4 2.33333 5 2.33333 6.22222V11.7778C2.33333 13 3.33333 14 4.55555 14H13.4444C14.6667 14 15.6667 13 15.6667 11.7778V6.22222C15.6667 5 14.6667 4 13.4444 4ZM14.3333 7.22222L9.94444 10.1667C9.66666 10.3333 9.33333 10.4444 8.99999 10.4444C8.66666 10.4444 8.33333 10.3333 8.05555 10.1667L3.66666 7.22222C3.44444 7.05556 3.38888 6.72222 3.55555 6.44444C3.72222 6.22222 4.05555 6.16667 4.33333 6.33333L8.72222 9.27778C8.88888 9.38889 9.16666 9.38889 9.33333 9.27778L13.7222 6.33333C14 6.16667 14.3333 6.22222 14.5 6.5C14.6111 6.72222 14.5555 7.05556 14.3333 7.22222Z" fill="white"/>
</g>
</g>
</svg>
