<svg width="18" height="18" viewBox="0 0 18 18" fill="none" xmlns="http://www.w3.org/2000/svg">
<g id="Password">
<path id="Vector" d="M15.6685 8.65782C14.3974 6.17789 11.8812 4.5 9 4.5C6.11882 4.5 3.60186 6.17907 2.33155 8.65805C2.27793 8.76411 2.25 8.88129 2.25 9.00013C2.25 9.11896 2.27793 9.23614 2.33155 9.3422C3.60257 11.8221 6.11882 13.5 9 13.5C11.8812 13.5 14.3981 11.821 15.6685 9.34196C15.7221 9.23591 15.75 9.11873 15.75 8.99989C15.75 8.88105 15.7221 8.76388 15.6685 8.65782ZM9 12.375C8.33249 12.375 7.67996 12.1771 7.12495 11.8062C6.56993 11.4354 6.13735 10.9083 5.8819 10.2916C5.62645 9.67487 5.55962 8.99626 5.68984 8.34158C5.82007 7.68689 6.14151 7.08552 6.61351 6.61352C7.08551 6.14152 7.68688 5.82008 8.34157 5.68985C8.99626 5.55963 9.67486 5.62646 10.2916 5.88191C10.9083 6.13736 11.4354 6.56994 11.8062 7.12496C12.1771 7.67997 12.375 8.3325 12.375 9.00001C12.3752 9.44328 12.2881 9.88225 12.1185 10.2918C11.949 10.7014 11.7004 11.0735 11.387 11.387C11.0735 11.7004 10.7014 11.949 10.2918 12.1185C9.88224 12.2881 9.44327 12.3752 9 12.375ZM9 6.75C8.79917 6.75281 8.59964 6.78269 8.4068 6.83883C8.56575 7.05485 8.64203 7.32068 8.6218 7.58812C8.60157 7.85555 8.48617 8.10688 8.29652 8.29653C8.10688 8.48618 7.85555 8.60158 7.58811 8.62181C7.32067 8.64204 7.05484 8.56576 6.83882 8.4068C6.71582 8.85999 6.73802 9.34034 6.90231 9.78024C7.0666 10.2201 7.36471 10.5975 7.75467 10.8591C8.14463 11.1207 8.60682 11.2534 9.07616 11.2386C9.54551 11.2237 9.9984 11.0621 10.3711 10.7764C10.7437 10.4907 11.0174 10.0953 11.1536 9.64594C11.2898 9.19655 11.2817 8.71575 11.1303 8.27124C10.9789 7.82672 10.692 7.44086 10.3098 7.16797C9.92769 6.89508 9.46958 6.7489 9 6.75Z" fill="white"/>
</g>
</svg>
